<svg width="792" height="227" viewBox="0 0 792 227" fill="none" xmlns="http://www.w3.org/2000/svg">
<g clip-path="url(#clip0_21_278)">
<path d="M17.2002 219.4V191.4H24.7002C27.6002 191.4 29.9001 192.5 31.8001 194.7C33.6001 196.9 34.5002 199.8 34.5002 203.3V207.5C34.5002 211.1 33.5001 213.8 31.8001 216.1C30.0001 218.3 27.7002 219.4 24.7002 219.4H17.2002ZM21.0002 195.3V215.8H24.7002C26.5002 215.8 28.0002 215 29.1002 213.5C30.2002 212 30.7002 210.1 30.7002 207.6V203.4C30.7002 201.1 30.2002 199.2 29.1002 197.5C28.0002 196 26.5002 195.2 24.7002 195.2L21.0002 195.3Z" fill="#414042"/>
<path d="M42.7999 219.4H38.8999V191.4H42.6999C42.7999 191.5 42.7999 219.4 42.7999 219.4Z" fill="#414042"/>
<path d="M60.7 206.9H51.8V215.8H62.3V219.5H48V191.5H62.2V195.2H51.8V203.1H60.7V206.9ZM61.1 189.6L57.8 189.7L54.9 186.7L52.2 189.7H48.9V189.6L53.4 185H56.4L61.1 189.6ZM59.2 180.3C59.2 181.3 58.9 181.9 58.5 182.6C58.1 183.3 57.4 183.7 56.7 183.7C56.2 183.7 55.6 183.4 54.9 183C54.2 182.6 53.7 182.3 53.3 182.3C53 182.3 52.8 182.4 52.5 182.8C52.2 183.2 52.2 183.5 52.2 183.9L50.7 183.4C50.7 182.6 51 181.8 51.4 181.1C51.8 180.4 52.5 180 53.2 180C53.6 180 54.2 180.3 55 180.7C55.7 181.1 56.2 181.4 56.6 181.4C56.9 181.4 57.1 181.3 57.4 180.9C57.7 180.5 57.8 180.1 57.8 179.7L59.2 180.3Z" fill="#414042"/>
<path d="M83.5002 219.4H79.7002L69.6002 199.3H69.5002V219.4H65.7002V191.4H69.7002L79.7002 211.5H79.8002V191.4H83.6002V219.4H83.5002Z" fill="#414042"/>
<path d="M96.3999 219.4V206.8H93.8999V203.5H96.3999V191.5H103.9C106.8 191.5 109.1 192.6 111 194.8C112.8 197 113.7 199.9 113.7 203.4V207.6C113.7 211.2 112.7 213.9 111 216.2C109.2 218.4 106.8 219.5 103.9 219.5L96.3999 219.4ZM104.2 206.9H100.1V215.8H103.8C105.6 215.8 107.1 215 108.2 213.5C109.3 212 109.8 210.1 109.8 207.6V203.4C109.8 201.1 109.3 199.2 108.2 197.5C107.1 196 105.6 195.2 103.8 195.2H100.1V203.5H104.2V206.9Z" fill="#414042"/>
<path d="M129.5 212.9H121.4L119.6 219.5H115.6L123.5 191.5H127.2L135.1 219.5H131.1L129.5 212.9ZM127.2 188.8H124.1L120 183.7V183.6H124.4L127.2 188.8ZM122.4 209H128.4L125.5 197.9H125.4L122.4 209Z" fill="#414042"/>
<path d="M155.9 219.4H152.1L141.9 199.3H141.8V219.4H138V191.4H141.8L151.9 211.5H152V191.4H155.8L155.9 219.4Z" fill="#414042"/>
<path d="M185.3 210.3C185.4 213.2 184.6 215.5 183.1 217.3C181.6 219.1 179.5 219.9 176.8 219.9C174.2 219.9 172 218.8 170.4 216.6C168.8 214.4 167.9 211.5 167.9 208.1V202.8C167.9 199.4 168.7 196.6 170.4 194.3C172 192 174.2 191 176.8 191C179.5 191 181.6 191.8 183.1 193.5C184.6 195.1 185.4 197.5 185.3 200.3V200.4H181.6C181.6 198.5 181.2 197.1 180.4 196.2C179.6 195.2 178.3 194.7 176.7 194.7C175.2 194.7 174 195.5 173 197C172 198.5 171.6 200.4 171.6 202.7V208C171.6 210.3 172 212.2 173 213.7C174 215.2 175.2 215.9 176.8 215.9C178.3 215.9 179.5 215.4 180.4 214.4C181.2 213.4 181.6 211.9 181.6 210L185.3 210.3Z" fill="#414042"/>
<path d="M206.5 191.5V210C206.5 213.1 205.7 215.6 204 217.4C202.4 219.2 200.2 220 197.6 220C195 220 193 219.2 191.3 217.4C189.7 215.6 188.8 213.2 188.8 210V191.5H192.6V210C192.6 212.1 193 213.6 194 214.6C195 215.7 196.1 216.2 197.6 216.2C199.1 216.2 200.3 215.7 201.3 214.6C202.3 213.5 202.7 212 202.7 210V191.5H206.5ZM196.2 189.1L196.1 186.2C196.9 186.2 197.5 186.1 197.7 185.8C198 185.7 198.2 185.3 198.2 184.8C198.2 184.3 197.9 184 197.5 183.7C197.1 183.4 196.5 183.4 195.7 183.4L195.8 181.1C197.6 181.1 198.8 181.4 199.8 182.1C200.8 182.8 201.2 183.6 201.2 184.8C201.2 185.6 200.9 186.3 200.5 186.9C200.1 187.3 199.5 187.6 198.9 187.7V189.1H196.2Z" fill="#414042"/>
<path d="M222.5 212.9H214.4L212.6 219.5H208.6L216.5 191.5H220.1L228 219.5H224L222.5 212.9ZM215.4 209H221.4L218.5 197.9H218.4L215.4 209Z" fill="#414042"/>
<path d="M256.8 219.4H253V207.5H242.7V219.4H238.9V191.4H242.7V203.7H253V191.4H256.8V219.4Z" fill="#414042"/>
<path d="M279.5 208C279.5 211.4 278.7 214.3 276.9 216.5C275.1 218.7 272.9 219.9 270.1 219.9C267.4 219.9 265.2 218.8 263.4 216.5C261.6 214.2 260.8 211.4 260.8 208V202.9C260.8 199.5 261.6 196.6 263.4 194.4C265.2 192.2 267.4 191 270.1 191C272.8 191 275.2 192.1 276.9 194.4C278.6 196.7 279.5 199.5 279.5 202.9V208ZM275.8 202.9C275.8 200.6 275.3 198.7 274.3 197.2C273.3 195.7 272 195 270.2 195C268.6 195 267.2 195.7 266.2 197.2C265.2 198.7 264.7 200.6 264.7 202.9V208C264.7 210.3 265.2 212.2 266.2 213.7C267.2 215.2 268.5 215.9 270.2 215.9C272 215.9 273.3 215.2 274.3 213.7C275.3 212.2 275.8 210.3 275.8 208V202.9ZM275.5 187.8V188.2H272.5L270.3 185.5L268.1 188.2H265.1V187.7L269.2 183.1H271.4L275.5 187.8ZM272.3 226.3H268V222.1H272.2V226.3H272.3Z" fill="#414042"/>
<path d="M287.6 219.4H283.8V191.4H287.6V219.4Z" fill="#414042"/>
<path d="M304.6 215.8H315.3V219.5H300.8V191.5H304.6V215.8Z" fill="#414042"/>
<path d="M322.6 219.4H318.8V191.4H322.6V219.4Z" fill="#414042"/>
<path d="M340.6 206.9H331.7V215.8H342.2V219.5H327.9V191.5H342.1V195.2H331.7V203.1H340.6V206.9ZM340.4 188.3V188.7H337.4L335.2 186L333 188.7H330V188.2L334.1 183.6H336.3L340.4 188.3Z" fill="#414042"/>
<path d="M363.5 219.4H359.7L349.6 199.3H349.5V219.4H345.7V191.4H349.5L359.6 211.5H359.7V191.4H363.5V219.4Z" fill="#414042"/>
<path d="M394.1 219.4H390.3V207.5H380V219.4H376.2V191.4H380V203.7H390.3V191.4H394.1V219.4Z" fill="#414042"/>
<path d="M403 219.4H399.2V191.4H403V219.4Z" fill="#414042"/>
<path d="M420.9 206.9H412V215.8H422.5V219.5H408.1V191.5H422.3V195.2H411.9V203.1H420.8L420.9 206.9ZM420.6 188.3V188.7H417.6L415.4 186L413.2 188.7H410V188.2L414.1 183.6H416.3L420.6 188.3ZM417.5 226H413.3V221.8H417.5V226Z" fill="#414042"/>
<path d="M429.8 208.9V219.6H426V191.6H434.8C437.3 191.6 439.3 192.4 440.7 194.1C442.1 195.7 442.9 197.8 442.9 200.4C442.9 203 442.2 205.2 440.7 206.7C439.3 208.3 437.3 209 434.8 209L429.8 208.9ZM429.8 205.1H434.7C436.1 205.1 437.2 204.7 437.8 203.7C438.5 202.7 438.9 201.6 438.9 200.1C438.9 198.7 438.5 197.5 437.8 196.5C437.1 195.5 436 195.1 434.7 195.1H429.8V205.1Z" fill="#414042"/>
<path d="M470.4 195.3H463.3V219.5H459.5V195.3H452.5V191.6H470.3V195.3H470.4Z" fill="#414042"/>
<path d="M491.1 219.4H487.3V207.5H477.2V219.4H473.4V191.4H477.2V203.7H487.5V191.4H491.3V219.4H491.1Z" fill="#414042"/>
<path d="M507.9 212.9H499.8L498 219.5H494L501.9 191.5H505.5L513.4 219.5H509.4L507.9 212.9ZM501.1 209H507.1L504.2 197.9H504.1L501.1 209Z" fill="#414042"/>
<path d="M534.4 219.4H530.6L520.5 199.3H520.4V219.4H516.6V191.4H520.4L530.5 211.5H530.6V191.4H534.4V219.4Z" fill="#414042"/>
<path d="M557.1 219.4H553.3V207.5H543V219.4H539.2V191.4H543V203.7H553.3V191.4H557.1V219.4Z" fill="#414042"/>
<path d="M587.8 219.4H583.9L573.8 199.3H573.7V219.4H569.9V191.4H573.7L583.8 211.5H583.9V191.4H587.7V219.4H587.8Z" fill="#414042"/>
<path d="M596.7 219.4H592.9V191.4H596.7V219.4Z" fill="#414042"/>
<path d="M614.6 206.9H605.7V215.8H616.2V219.5H601.9V191.5H616.1V195.2H605.7V203.1H614.6V206.9ZM614.2 188.3V188.7H611.2L609 186L606.8 188.7H603.8V188.2L607.9 183.6H610.1L614.2 188.3Z" fill="#414042"/>
<path d="M637.4 219.4H633.6L623.5 199.3H623.4V219.4H619.6V191.4H623.4L633.5 211.5H633.6V191.4H637.4V219.4Z" fill="#414042"/>
<path d="M657.5 211.9L657.9 214H658L658.4 211.9L663.9 191.5H668L659.8 219.5H656.2L648 191.5H652.1L657.5 211.9Z" fill="#414042"/>
<path d="M674.8 219.4H670.9V191.4H674.7V219.4H674.8Z" fill="#414042"/>
<path d="M692.5 206.9H683.6V215.8H694V219.5H679.6V191.5H693.8V195.2H683.4V203.1H692.3V206.9H692.5ZM692.3 188.3V188.7H689.3L687.1 186L684.9 188.7H681.9V188.2L686 183.6H688.2L692.3 188.3ZM689.1 226H684.9V221.8H689.1V226Z" fill="#414042"/>
<path d="M713.6 195.3H706.5V219.5H702.7V195.3H695.7V191.6H713.5L713.6 195.3Z" fill="#414042"/>
<path d="M742.3 219.4H738.5L728.4 199.3H728.3V219.4H724.5V191.4H728.3L738.4 211.5H738.5V191.4H742.3V219.4Z" fill="#414042"/>
<path d="M759.3 212.9H751.2L749.4 219.5H745.4L753.3 191.5H756.9L764.8 219.5H760.8L759.3 212.9ZM752.3 209H758.3L755.4 197.9H755.3L752.3 209Z" fill="#414042"/>
<path d="M779.4 213L786.1 191.5H791V219.5H787.2V199.5H787.1L780.8 219.6H778.2L771.8 199.1H771.7V219.6H767.9V191.6H773L779.4 213Z" fill="#414042"/>
<path d="M700.7 15.1C737.6 15.1 750.5 27.7 755.5 31.8V15.2H792V166.9H756.2V101.8C756.2 95.6 750.5 78.6 737.1 78.4V166.9H700.7V15.1ZM656.4 132.5H693.5V167H622V15.1H693.4V49.6H656.3V75.3H688V104.3H656.3V132.5H656.4ZM582.4 15.1H616.9V166.8H582.4V15.1ZM484.5 15.1C521.4 15.1 534.3 27.7 539.3 31.8V15.2H575.9V166.9H540.1V101.8C540.1 95.6 534.4 78.6 521 78.4V166.9H484.6V15.1H484.5ZM424.5 15.1H458.9V166.8H424.4V99.2H406.3V166.8H371.8V15.1H406.3V70.9H424.4V15.1H424.5ZM272.5 15.1C309.4 15.1 322.3 27.7 327.3 31.8V15.2H363.9V166.9H328.1V101.8C328.1 95.6 322.4 78.6 309 78.4V166.9H272.6V15.1H272.5ZM174.9 167.1H211.9V148.5H229.9V167H266.9V15.1C196.6 15.2 175 66.4 174.9 101.1V167.1ZM230 69.8V117H212.1V104.7C211.9 93.3 220 69.8 230 69.8ZM135.1 15.1H169.6V166.8H135.1V99.2H117.2V166.8H82.7001V15.1H117.2V70.9H135.3V15.1H135.1ZM0.100098 15.1H77.8001V44.6H56.6001V166.7H21.3001V44.7H0.100098V15.1ZM649.6 8.50002L657.4 0.700012C658.4 -0.299988 660.4 -0.299988 661.4 0.700012L669.2 8.50002C670.2 9.50002 671.1 10.4 669.2 12.5C667.3 14.4 666.3 13.5 665.2 12.5L659.3 6.60002L653.4 12.5C652.4 13.5 651.5 14.4 649.4 12.5C647.5 10.5 648.6 9.50002 649.6 8.50002Z" fill="#0098D1"/>
</g>
<defs>
<clipPath id="clip0_21_278">
<rect width="792" height="227" fill="white"/>
</clipPath>
</defs>
</svg>
